<svg width="497" height="445" viewBox="0 0 497 445" fill="none" xmlns="http://www.w3.org/2000/svg">
<rect x="34.945" y="202.605" width="181" height="184" rx="26" transform="rotate(9.49098 34.945 202.605)" stroke="#FFE562" stroke-width="8"/>
<g clip-path="url(#clip0)">
<path d="M478.462 61.0364L226.522 -6.47086C194.514 -15.0474 161.614 3.94758 153.037 35.9555L85.53 287.896C76.9535 319.904 95.9485 352.804 127.956 361.381L379.897 428.888C411.905 437.465 444.805 418.47 453.382 386.462L520.889 134.521C529.465 102.513 510.47 69.6129 478.462 61.0364Z" fill="#2EC6C6"/>
<path d="M341.986 86.8231C341.275 86.1851 340.302 85.9251 339.367 86.1211L223.951 110.377C217.005 111.838 212.156 117.31 210.421 123.784L205.454 142.322C205.168 143.389 205.801 144.486 206.868 144.771L222.198 148.879L194.068 253.86L185.555 251.579C180.723 250.285 175.757 253.152 174.462 257.984C173.168 262.815 176.035 267.781 180.867 269.076L275.69 294.484L387.774 324.517C392.606 325.811 397.572 322.944 398.867 318.112C400.161 313.281 397.294 308.315 392.462 307.02L383.949 304.739L402.702 234.751L412.079 199.757L427.409 203.865C428.476 204.151 429.572 203.518 429.858 202.451L431.685 195.634L434.825 183.913C436.56 177.439 435.096 170.275 429.812 165.538L341.986 86.8231ZM334.129 105.669C335.064 105.472 336.037 105.733 336.749 106.371L417.572 178.85C417.584 178.905 417.629 179.044 417.564 179.287L416.767 182.261L226.886 131.382L227.683 128.409C227.748 128.166 227.866 128.033 227.903 127.992L334.129 105.669ZM331.203 121.828C328.914 121.214 326.472 121.548 324.414 122.755C322.355 123.962 320.85 125.943 320.228 128.263C319.606 130.584 319.92 133.052 321.099 135.127C322.278 137.201 324.226 138.711 326.515 139.324C328.804 139.938 331.246 139.604 333.305 138.397C335.363 137.19 336.868 135.209 337.49 132.889C338.112 130.568 337.799 128.1 336.62 126.025C335.441 123.951 333.492 122.441 331.203 121.828ZM239.46 153.504L256.722 158.13L228.592 263.111L211.33 258.486L239.46 153.504ZM273.984 162.755L360.293 185.882L350.917 220.875L332.163 290.863L280.378 276.987L245.854 267.736L273.984 162.755ZM377.555 190.507L394.817 195.132L385.44 230.126L366.687 300.113L349.425 295.488L368.178 225.501L377.555 190.507Z" fill="white"/>
</g>
<defs>
<clipPath id="clip0">
<rect width="467" height="467" fill="white" transform="translate(70 -22)"/>
</clipPath>
</defs>
</svg>
