<svg width="520" height="490" viewBox="0 0 520 490" fill="none" xmlns="http://www.w3.org/2000/svg">
<path d="M160.19 13.9662L444.077 100.301C469.439 108.014 483.747 134.828 476.034 160.19L389.699 444.077C381.986 469.439 355.172 483.747 329.81 476.034L45.9235 389.699C20.5608 381.986 6.25304 355.172 13.9663 329.81L100.301 45.9234C108.014 20.5607 134.828 6.25294 160.19 13.9662Z" fill="#FCE7FA"/>
<g filter="url(#filter0_d)">
<path d="M328.736 108H49.2637C40.2815 108 33 115.282 33 124.264V303.736C33 312.718 40.2815 320 49.2637 320H328.736C337.719 320 345 312.718 345 303.736V124.264C345 115.282 337.719 108 328.736 108Z" fill="white"/>
</g>
<path d="M263 259H115C112.791 259 111 260.791 111 263V289C111 291.209 112.791 293 115 293H263C265.209 293 267 291.209 267 289V263C267 260.791 265.209 259 263 259Z" fill="#F5F4F7"/>
<g filter="url(#filter1_d)">
<path d="M135.33 266H123C120.791 266 119 267.791 119 270V282.33C119 284.539 120.791 286.33 123 286.33H135.33C137.539 286.33 139.33 284.539 139.33 282.33V270C139.33 267.791 137.539 266 135.33 266Z" fill="white"/>
<path d="M135.329 266.169H123C120.884 266.169 119.169 267.884 119.169 270V282.329C119.169 284.445 120.884 286.16 123 286.16H135.329C137.445 286.16 139.16 284.445 139.16 282.329V270C139.16 267.884 137.445 266.169 135.329 266.169Z" stroke="#EAEAEF" stroke-width="0.338828"/>
</g>
<path d="M134.787 277.349L133.343 274.899C132.817 274.005 131.632 273.736 130.697 274.297L128.242 275.77C127.307 276.331 126.976 277.51 127.502 278.404L128.946 280.854C129.473 281.748 130.658 282.017 131.593 281.456L134.047 279.983C134.982 279.422 135.314 278.243 134.787 277.349Z" fill="#3EC0AD"/>
<path d="M127.687 275.861L127.509 275.201C127.241 274.204 126.169 273.641 125.117 273.944L124.545 274.109C123.492 274.412 122.856 275.467 123.125 276.464L123.302 277.124C123.571 278.121 124.642 278.684 125.695 278.381L126.267 278.216C127.32 277.913 127.956 276.858 127.687 275.861Z" fill="#FF6955"/>
<path d="M133.396 273.674L129.169 271.377C128.233 270.868 127.056 271.208 126.539 272.135L124.029 276.635C123.512 277.562 123.851 278.726 124.786 279.235L129.014 281.532C129.949 282.041 131.127 281.701 131.644 280.774L134.154 276.274C134.671 275.346 134.332 274.183 133.396 273.674Z" fill="#2F2B5B"/>
<path d="M210.5 271H145.5C144.672 271 144 271.672 144 272.5C144 273.328 144.672 274 145.5 274H210.5C211.328 274 212 273.328 212 272.5C212 271.672 211.328 271 210.5 271Z" fill="#A19FB0"/>
<path d="M170.5 277H145.5C144.672 277 144 277.672 144 278.5C144 279.328 144.672 280 145.5 280H170.5C171.328 280 172 279.328 172 278.5C172 277.672 171.328 277 170.5 277Z" fill="#A19FB0"/>
<path d="M441.264 319.946C444.068 314.268 450.945 311.938 456.623 314.743L479.721 326.152C485.399 328.957 487.729 335.833 484.924 341.511L473.515 364.61C470.71 370.288 463.834 372.617 458.156 369.813L435.057 358.403C429.379 355.599 427.05 348.722 429.854 343.044L441.264 319.946Z" fill="#6EFBE6"/>
<path d="M451.474 300.185L377.792 311.415C371.531 312.369 367.229 318.217 368.184 324.478L379.413 398.16C380.367 404.421 386.215 408.723 392.476 407.769L466.159 396.54C472.419 395.586 476.721 389.737 475.767 383.476L464.538 309.794C463.584 303.533 457.735 299.231 451.474 300.185Z" fill="#2F2B5B"/>
<path d="M403.571 329.239C407.217 347.297 415.149 355.395 423.4 354.137C431.651 352.88 436.81 342.787 434.913 324.463C434.668 322.101 432.46 320.483 430.113 320.841L418.1 322.671L407.074 324.352C404.726 324.71 403.1 326.912 403.571 329.239Z" stroke="white" stroke-width="5.73333" stroke-linejoin="round"/>
<path d="M411.888 383.813C409.99 365.489 415.149 355.396 423.4 354.139C431.651 352.881 439.583 360.979 443.229 379.036C443.7 381.364 442.074 383.566 439.726 383.924L427.714 385.754L416.687 387.435C414.34 387.793 412.132 386.175 411.888 383.813Z" stroke="white" stroke-width="5.73333" stroke-linejoin="round"/>
<path d="M412.148 377.366L427.918 374.962" stroke="white" stroke-width="5.73333" stroke-linecap="round"/>
<path d="M360.132 367.848C364.372 363.144 371.622 362.767 376.327 367.007L385.144 374.955C389.848 379.195 390.225 386.445 385.985 391.149L378.917 398.99C374.677 403.694 367.427 404.071 362.723 399.831L353.905 391.883C349.201 387.643 348.825 380.393 353.065 375.689L360.132 367.848Z" fill="#FF6955"/>
<path d="M179.307 168.942L173.009 162.783C171.593 161.398 169.928 161.795 169.29 163.669L165.007 176.235C164.368 178.109 164.998 180.75 166.414 182.134L172.711 188.294C174.127 189.678 175.792 189.281 176.431 187.407L180.713 174.842C181.352 172.968 180.722 170.326 179.307 168.942Z" fill="#FF6955"/>
<path d="M189.492 173.511L181.94 157.594C181.091 155.805 179.09 155.278 177.47 156.416L164.933 165.224C163.313 166.362 162.687 168.735 163.536 170.524L171.088 186.441C171.937 188.229 173.938 188.757 175.558 187.619L188.095 178.811C189.715 177.672 190.34 175.3 189.492 173.511Z" fill="#3EC0AD"/>
<path d="M203.659 160.288L180.953 153.962C179.046 153.431 177.099 154.554 176.605 156.471L170.46 180.317C169.966 182.234 171.112 184.219 173.019 184.75L195.724 191.076C197.631 191.607 199.578 190.484 200.072 188.566L206.217 164.721C206.711 162.804 205.566 160.819 203.659 160.288Z" fill="#FFE562"/>
<path d="M232.915 228.208H145.085C144.59 228.208 144.189 228.609 144.189 229.104C144.189 229.599 144.59 230 145.085 230H232.915C233.41 230 233.812 229.599 233.812 229.104C233.812 228.609 233.41 228.208 232.915 228.208Z" fill="#F0F0F4"/>
<path d="M198.858 228.208H155.839C155.344 228.208 154.943 228.609 154.943 229.104C154.943 229.599 155.344 230 155.839 230H198.858C199.353 230 199.754 229.599 199.754 229.104C199.754 228.609 199.353 228.208 198.858 228.208Z" fill="#3EC0AD"/>
<path d="M125.621 210.645C124.588 210.645 123.8 210.365 123.256 209.806C122.72 209.239 122.433 208.466 122.394 207.487C122.386 207.278 122.382 206.936 122.382 206.462C122.382 205.981 122.386 205.631 122.394 205.414C122.433 204.435 122.72 203.666 123.256 203.107C123.8 202.54 124.588 202.256 125.621 202.256C126.313 202.256 126.899 202.38 127.381 202.629C127.862 202.87 128.223 203.188 128.464 203.584C128.713 203.98 128.849 204.404 128.872 204.854C128.872 204.924 128.845 204.982 128.79 205.029C128.744 205.068 128.686 205.087 128.616 205.087H128.033C127.955 205.087 127.893 205.068 127.847 205.029C127.8 204.99 127.765 204.924 127.742 204.831C127.61 204.233 127.369 203.813 127.019 203.573C126.678 203.332 126.212 203.212 125.621 203.212C124.27 203.212 123.567 203.965 123.513 205.472C123.505 205.682 123.501 206.004 123.501 206.439C123.501 206.874 123.505 207.204 123.513 207.429C123.567 208.928 124.27 209.678 125.621 209.678C126.204 209.678 126.67 209.557 127.019 209.317C127.369 209.076 127.61 208.66 127.742 208.07C127.765 207.977 127.8 207.911 127.847 207.872C127.893 207.833 127.955 207.814 128.033 207.814H128.616C128.686 207.814 128.744 207.837 128.79 207.884C128.845 207.922 128.872 207.977 128.872 208.047C128.849 208.497 128.713 208.92 128.464 209.317C128.223 209.713 127.862 210.035 127.381 210.284C126.899 210.524 126.313 210.645 125.621 210.645ZM132.764 210.645C131.909 210.645 131.249 210.404 130.783 209.922C130.325 209.441 130.08 208.8 130.049 208L130.038 207.499L130.049 206.998C130.08 206.198 130.329 205.557 130.795 205.076C131.269 204.594 131.925 204.353 132.764 204.353C133.603 204.353 134.255 204.594 134.721 205.076C135.195 205.557 135.447 206.198 135.479 206.998C135.494 207.169 135.502 207.336 135.502 207.499C135.502 207.662 135.494 207.829 135.479 208C135.447 208.8 135.199 209.441 134.733 209.922C134.275 210.404 133.618 210.645 132.764 210.645ZM132.764 209.771C133.261 209.771 133.653 209.616 133.941 209.305C134.236 208.987 134.395 208.532 134.418 207.942C134.426 207.864 134.43 207.717 134.43 207.499C134.43 207.282 134.426 207.134 134.418 207.056C134.395 206.466 134.236 206.016 133.941 205.705C133.653 205.386 133.261 205.227 132.764 205.227C132.267 205.227 131.871 205.386 131.575 205.705C131.288 206.016 131.133 206.466 131.109 207.056L131.098 207.499L131.109 207.942C131.133 208.532 131.288 208.987 131.575 209.305C131.871 209.616 132.267 209.771 132.764 209.771ZM137.241 210.528C137.163 210.528 137.097 210.505 137.043 210.458C136.996 210.404 136.973 210.338 136.973 210.26V204.738C136.973 204.66 136.996 204.598 137.043 204.551C137.097 204.497 137.163 204.47 137.241 204.47H137.742C137.827 204.47 137.893 204.493 137.94 204.54C137.987 204.586 138.01 204.652 138.01 204.738V205.25C138.243 204.963 138.511 204.742 138.814 204.586C139.124 204.431 139.509 204.353 139.967 204.353C140.713 204.353 141.292 204.594 141.703 205.076C142.115 205.549 142.321 206.179 142.321 206.963V210.26C142.321 210.338 142.294 210.404 142.239 210.458C142.193 210.505 142.13 210.528 142.053 210.528H141.517C141.439 210.528 141.373 210.505 141.319 210.458C141.272 210.404 141.249 210.338 141.249 210.26V207.033C141.249 206.474 141.113 206.039 140.841 205.728C140.569 205.417 140.181 205.262 139.676 205.262C139.179 205.262 138.783 205.421 138.488 205.74C138.192 206.05 138.045 206.482 138.045 207.033V210.26C138.045 210.338 138.018 210.404 137.963 210.458C137.917 210.505 137.855 210.528 137.777 210.528H137.241ZM144.272 210.528C144.195 210.528 144.129 210.505 144.074 210.458C144.028 210.404 144.004 210.338 144.004 210.26V204.738C144.004 204.66 144.028 204.598 144.074 204.551C144.129 204.497 144.195 204.47 144.272 204.47H144.773C144.859 204.47 144.925 204.493 144.971 204.54C145.018 204.586 145.041 204.652 145.041 204.738V205.25C145.274 204.963 145.542 204.742 145.845 204.586C146.156 204.431 146.54 204.353 146.999 204.353C147.744 204.353 148.323 204.594 148.735 205.076C149.146 205.549 149.352 206.179 149.352 206.963V210.26C149.352 210.338 149.325 210.404 149.271 210.458C149.224 210.505 149.162 210.528 149.084 210.528H148.548C148.471 210.528 148.405 210.505 148.35 210.458C148.304 210.404 148.28 210.338 148.28 210.26V207.033C148.28 206.474 148.144 206.039 147.873 205.728C147.601 205.417 147.212 205.262 146.707 205.262C146.21 205.262 145.814 205.421 145.519 205.74C145.224 206.05 145.076 206.482 145.076 207.033V210.26C145.076 210.338 145.049 210.404 144.995 210.458C144.948 210.505 144.886 210.528 144.808 210.528H144.272ZM153.436 210.645C152.644 210.645 152.011 210.4 151.537 209.911C151.063 209.414 150.803 208.738 150.756 207.884L150.745 207.487L150.756 207.103C150.803 206.264 151.063 205.596 151.537 205.099C152.011 204.602 152.644 204.353 153.436 204.353C154.29 204.353 154.951 204.625 155.417 205.169C155.891 205.713 156.127 206.45 156.127 207.383V207.592C156.127 207.67 156.1 207.736 156.046 207.79C155.999 207.837 155.937 207.86 155.859 207.86H151.817V207.965C151.84 208.47 151.995 208.901 152.283 209.258C152.57 209.616 152.951 209.794 153.424 209.794C153.789 209.794 154.085 209.724 154.31 209.585C154.543 209.437 154.718 209.286 154.834 209.13C154.904 209.037 154.958 208.983 154.997 208.967C155.036 208.944 155.102 208.932 155.195 208.932H155.708C155.778 208.932 155.836 208.952 155.883 208.99C155.937 209.029 155.964 209.08 155.964 209.142C155.964 209.313 155.859 209.519 155.65 209.759C155.44 210 155.141 210.21 154.753 210.389C154.372 210.559 153.933 210.645 153.436 210.645ZM155.067 207.068V207.033C155.067 206.489 154.92 206.047 154.624 205.705C154.329 205.363 153.933 205.192 153.436 205.192C152.931 205.192 152.535 205.363 152.248 205.705C151.96 206.047 151.817 206.489 151.817 207.033V207.068H155.067ZM159.968 210.645C159.136 210.645 158.488 210.412 158.022 209.946C157.556 209.472 157.311 208.812 157.288 207.965L157.276 207.499L157.288 207.033C157.311 206.186 157.556 205.53 158.022 205.064C158.488 204.59 159.136 204.353 159.968 204.353C160.527 204.353 160.997 204.454 161.377 204.656C161.766 204.85 162.053 205.095 162.239 205.39C162.434 205.685 162.539 205.981 162.554 206.276C162.562 206.346 162.535 206.408 162.472 206.462C162.418 206.517 162.356 206.544 162.286 206.544H161.773C161.696 206.544 161.638 206.528 161.599 206.497C161.56 206.458 161.521 206.392 161.482 206.299C161.342 205.918 161.148 205.65 160.9 205.495C160.659 205.332 160.352 205.25 159.979 205.25C159.49 205.25 159.101 205.402 158.814 205.705C158.527 206.008 158.371 206.47 158.348 207.091L158.336 207.499L158.348 207.907C158.371 208.528 158.527 208.99 158.814 209.293C159.101 209.596 159.49 209.748 159.979 209.748C160.36 209.748 160.67 209.67 160.911 209.515C161.152 209.352 161.342 209.08 161.482 208.699C161.521 208.606 161.56 208.544 161.599 208.513C161.638 208.474 161.696 208.454 161.773 208.454H162.286C162.356 208.454 162.418 208.482 162.472 208.536C162.535 208.59 162.562 208.653 162.554 208.722C162.539 209.01 162.434 209.301 162.239 209.596C162.053 209.891 161.766 210.14 161.377 210.342C160.997 210.544 160.527 210.645 159.968 210.645ZM166.28 210.528C165.076 210.528 164.474 209.849 164.474 208.489V205.367H163.554C163.476 205.367 163.414 205.344 163.367 205.297C163.321 205.25 163.297 205.188 163.297 205.111V204.738C163.297 204.66 163.321 204.598 163.367 204.551C163.414 204.497 163.476 204.47 163.554 204.47H164.474V202.524C164.474 202.446 164.497 202.384 164.544 202.338C164.591 202.283 164.653 202.256 164.73 202.256H165.243C165.321 202.256 165.383 202.283 165.43 202.338C165.484 202.384 165.511 202.446 165.511 202.524V204.47H166.956C167.033 204.47 167.096 204.497 167.142 204.551C167.197 204.598 167.224 204.66 167.224 204.738V205.111C167.224 205.188 167.197 205.25 167.142 205.297C167.096 205.344 167.033 205.367 166.956 205.367H165.511V208.408C165.511 208.804 165.573 209.103 165.698 209.305C165.83 209.507 166.051 209.608 166.362 209.608H167.072C167.15 209.608 167.212 209.635 167.259 209.689C167.305 209.736 167.329 209.798 167.329 209.876V210.26C167.329 210.338 167.305 210.404 167.259 210.458C167.212 210.505 167.15 210.528 167.072 210.528H166.28ZM168.642 203.328C168.564 203.328 168.498 203.305 168.444 203.258C168.397 203.204 168.374 203.138 168.374 203.06V202.454C168.374 202.377 168.397 202.311 168.444 202.256C168.498 202.202 168.564 202.175 168.642 202.175H169.329C169.407 202.175 169.473 202.202 169.527 202.256C169.582 202.311 169.609 202.377 169.609 202.454V203.06C169.609 203.138 169.582 203.204 169.527 203.258C169.473 203.305 169.407 203.328 169.329 203.328H168.642ZM168.735 210.528C168.657 210.528 168.591 210.505 168.537 210.458C168.49 210.404 168.467 210.338 168.467 210.26V204.738C168.467 204.66 168.49 204.598 168.537 204.551C168.591 204.497 168.657 204.47 168.735 204.47H169.248C169.325 204.47 169.387 204.497 169.434 204.551C169.488 204.598 169.515 204.66 169.515 204.738V210.26C169.515 210.338 169.488 210.404 169.434 210.458C169.387 210.505 169.325 210.528 169.248 210.528H168.735ZM171.534 210.528C171.456 210.528 171.39 210.505 171.336 210.458C171.289 210.404 171.266 210.338 171.266 210.26V204.738C171.266 204.66 171.289 204.598 171.336 204.551C171.39 204.497 171.456 204.47 171.534 204.47H172.035C172.12 204.47 172.186 204.493 172.233 204.54C172.279 204.586 172.303 204.652 172.303 204.738V205.25C172.536 204.963 172.804 204.742 173.107 204.586C173.417 204.431 173.802 204.353 174.26 204.353C175.006 204.353 175.584 204.594 175.996 205.076C176.408 205.549 176.614 206.179 176.614 206.963V210.26C176.614 210.338 176.586 210.404 176.532 210.458C176.485 210.505 176.423 210.528 176.346 210.528H175.81C175.732 210.528 175.666 210.505 175.612 210.458C175.565 210.404 175.542 210.338 175.542 210.26V207.033C175.542 206.474 175.406 206.039 175.134 205.728C174.862 205.417 174.474 205.262 173.969 205.262C173.472 205.262 173.076 205.421 172.78 205.74C172.485 206.05 172.338 206.482 172.338 207.033V210.26C172.338 210.338 172.311 210.404 172.256 210.458C172.21 210.505 172.147 210.528 172.07 210.528H171.534ZM180.756 213.092C180.111 213.092 179.595 212.983 179.206 212.765C178.818 212.548 178.542 212.299 178.379 212.02C178.224 211.74 178.146 211.499 178.146 211.297C178.146 211.227 178.173 211.165 178.227 211.111C178.282 211.064 178.344 211.041 178.414 211.041H178.927C178.996 211.041 179.055 211.056 179.101 211.088C179.148 211.126 179.187 211.192 179.218 211.286C179.435 211.907 179.929 212.218 180.697 212.218C181.28 212.218 181.711 212.093 181.991 211.845C182.27 211.596 182.41 211.157 182.41 210.528V209.724C181.96 210.299 181.331 210.587 180.523 210.587C179.699 210.587 179.082 210.322 178.67 209.794C178.266 209.266 178.053 208.598 178.029 207.79L178.018 207.464L178.029 207.15C178.053 206.35 178.266 205.685 178.67 205.157C179.082 204.621 179.699 204.353 180.523 204.353C181.338 204.353 181.975 204.652 182.433 205.25V204.749C182.433 204.672 182.457 204.606 182.503 204.551C182.558 204.497 182.624 204.47 182.701 204.47H183.202C183.28 204.47 183.342 204.497 183.389 204.551C183.443 204.606 183.47 204.672 183.47 204.749V210.4C183.47 212.194 182.566 213.092 180.756 213.092ZM180.732 209.678C181.276 209.678 181.684 209.503 181.956 209.154C182.235 208.796 182.387 208.369 182.41 207.872C182.418 207.802 182.422 207.666 182.422 207.464C182.422 207.27 182.418 207.138 182.41 207.068C182.387 206.571 182.235 206.148 181.956 205.798C181.684 205.441 181.276 205.262 180.732 205.262C180.173 205.262 179.765 205.441 179.509 205.798C179.261 206.148 179.125 206.602 179.101 207.161L179.09 207.464L179.101 207.779C179.125 208.338 179.261 208.796 179.509 209.154C179.765 209.503 180.173 209.678 180.732 209.678ZM190.174 210.528C188.97 210.528 188.368 209.849 188.368 208.489V205.367H187.447C187.37 205.367 187.307 205.344 187.261 205.297C187.214 205.25 187.191 205.188 187.191 205.111V204.738C187.191 204.66 187.214 204.598 187.261 204.551C187.307 204.497 187.37 204.47 187.447 204.47H188.368V202.524C188.368 202.446 188.391 202.384 188.438 202.338C188.484 202.283 188.546 202.256 188.624 202.256H189.137C189.214 202.256 189.276 202.283 189.323 202.338C189.377 202.384 189.405 202.446 189.405 202.524V204.47H190.849C190.927 204.47 190.989 204.497 191.036 204.551C191.09 204.598 191.117 204.66 191.117 204.738V205.111C191.117 205.188 191.09 205.25 191.036 205.297C190.989 205.344 190.927 205.367 190.849 205.367H189.405V208.408C189.405 208.804 189.467 209.103 189.591 209.305C189.723 209.507 189.944 209.608 190.255 209.608H190.966C191.044 209.608 191.106 209.635 191.152 209.689C191.199 209.736 191.222 209.798 191.222 209.876V210.26C191.222 210.338 191.199 210.404 191.152 210.458C191.106 210.505 191.044 210.528 190.966 210.528H190.174ZM194.819 210.645C193.964 210.645 193.304 210.404 192.838 209.922C192.38 209.441 192.135 208.8 192.104 208L192.092 207.499L192.104 206.998C192.135 206.198 192.384 205.557 192.85 205.076C193.324 204.594 193.98 204.353 194.819 204.353C195.658 204.353 196.31 204.594 196.776 205.076C197.25 205.557 197.502 206.198 197.533 206.998C197.549 207.169 197.557 207.336 197.557 207.499C197.557 207.662 197.549 207.829 197.533 208C197.502 208.8 197.254 209.441 196.788 209.922C196.33 210.404 195.673 210.645 194.819 210.645ZM194.819 209.771C195.316 209.771 195.708 209.616 195.996 209.305C196.291 208.987 196.45 208.532 196.473 207.942C196.481 207.864 196.485 207.717 196.485 207.499C196.485 207.282 196.481 207.134 196.473 207.056C196.45 206.466 196.291 206.016 195.996 205.705C195.708 205.386 195.316 205.227 194.819 205.227C194.322 205.227 193.926 205.386 193.63 205.705C193.343 206.016 193.188 206.466 193.164 207.056L193.153 207.499L193.164 207.942C193.188 208.532 193.343 208.987 193.63 209.305C193.926 209.616 194.322 209.771 194.819 209.771ZM203.975 210.528C202.771 210.528 202.169 209.849 202.169 208.489V205.367H201.249C201.171 205.367 201.109 205.344 201.062 205.297C201.016 205.25 200.992 205.188 200.992 205.111V204.738C200.992 204.66 201.016 204.598 201.062 204.551C201.109 204.497 201.171 204.47 201.249 204.47H202.169V202.524C202.169 202.446 202.192 202.384 202.239 202.338C202.286 202.283 202.348 202.256 202.425 202.256H202.938C203.016 202.256 203.078 202.283 203.124 202.338C203.179 202.384 203.206 202.446 203.206 202.524V204.47H204.651C204.728 204.47 204.791 204.497 204.837 204.551C204.892 204.598 204.919 204.66 204.919 204.738V205.111C204.919 205.188 204.892 205.25 204.837 205.297C204.791 205.344 204.728 205.367 204.651 205.367H203.206V208.408C203.206 208.804 203.268 209.103 203.392 209.305C203.524 209.507 203.746 209.608 204.057 209.608H204.767C204.845 209.608 204.907 209.635 204.954 209.689C205 209.736 205.024 209.798 205.024 209.876V210.26C205.024 210.338 205 210.404 204.954 210.458C204.907 210.505 204.845 210.528 204.767 210.528H203.975ZM206.441 210.528C206.364 210.528 206.298 210.505 206.243 210.458C206.197 210.404 206.173 210.338 206.173 210.26V202.524C206.173 202.439 206.197 202.373 206.243 202.326C206.298 202.279 206.364 202.256 206.441 202.256H206.977C207.063 202.256 207.129 202.279 207.175 202.326C207.222 202.373 207.245 202.439 207.245 202.524V205.239C207.471 204.951 207.735 204.734 208.038 204.586C208.348 204.431 208.729 204.353 209.179 204.353C209.925 204.353 210.504 204.594 210.915 205.076C211.335 205.549 211.545 206.179 211.545 206.963V210.26C211.545 210.338 211.517 210.404 211.463 210.458C211.416 210.505 211.354 210.528 211.277 210.528H210.729C210.651 210.528 210.585 210.505 210.531 210.458C210.484 210.404 210.461 210.338 210.461 210.26V207.033C210.461 206.474 210.325 206.039 210.053 205.728C209.781 205.417 209.389 205.262 208.876 205.262C208.379 205.262 207.983 205.421 207.688 205.74C207.393 206.05 207.245 206.482 207.245 207.033V210.26C207.245 210.338 207.218 210.404 207.164 210.458C207.117 210.505 207.055 210.528 206.977 210.528H206.441ZM215.639 210.645C214.847 210.645 214.214 210.4 213.74 209.911C213.266 209.414 213.006 208.738 212.959 207.884L212.948 207.487L212.959 207.103C213.006 206.264 213.266 205.596 213.74 205.099C214.214 204.602 214.847 204.353 215.639 204.353C216.493 204.353 217.154 204.625 217.62 205.169C218.093 205.713 218.33 206.45 218.33 207.383V207.592C218.33 207.67 218.303 207.736 218.249 207.79C218.202 207.837 218.14 207.86 218.062 207.86H214.019V207.965C214.043 208.47 214.198 208.901 214.485 209.258C214.773 209.616 215.153 209.794 215.627 209.794C215.992 209.794 216.287 209.724 216.513 209.585C216.746 209.437 216.921 209.286 217.037 209.13C217.107 209.037 217.161 208.983 217.2 208.967C217.239 208.944 217.305 208.932 217.398 208.932H217.911C217.981 208.932 218.039 208.952 218.086 208.99C218.14 209.029 218.167 209.08 218.167 209.142C218.167 209.313 218.062 209.519 217.853 209.759C217.643 210 217.344 210.21 216.955 210.389C216.575 210.559 216.136 210.645 215.639 210.645ZM217.27 207.068V207.033C217.27 206.489 217.122 206.047 216.827 205.705C216.532 205.363 216.136 205.192 215.639 205.192C215.134 205.192 214.738 205.363 214.451 205.705C214.163 206.047 214.019 206.489 214.019 207.033V207.068H217.27ZM225.574 210.645C224.735 210.645 224.094 210.35 223.651 209.759V210.26C223.651 210.338 223.624 210.404 223.57 210.458C223.523 210.505 223.461 210.528 223.383 210.528H222.894C222.816 210.528 222.75 210.505 222.696 210.458C222.649 210.404 222.626 210.338 222.626 210.26V202.524C222.626 202.439 222.649 202.373 222.696 202.326C222.75 202.279 222.816 202.256 222.894 202.256H223.418C223.496 202.256 223.558 202.283 223.605 202.338C223.659 202.384 223.686 202.446 223.686 202.524V205.215C224.121 204.641 224.75 204.353 225.574 204.353C226.389 204.353 226.999 204.621 227.403 205.157C227.814 205.685 228.032 206.35 228.055 207.15C228.063 207.235 228.067 207.351 228.067 207.499C228.067 207.647 228.063 207.763 228.055 207.849C228.032 208.649 227.814 209.317 227.403 209.853C226.999 210.381 226.389 210.645 225.574 210.645ZM225.352 209.736C225.911 209.736 226.319 209.561 226.576 209.212C226.832 208.862 226.972 208.404 226.995 207.837C227.003 207.759 227.007 207.647 227.007 207.499C227.007 206.008 226.455 205.262 225.352 205.262C224.824 205.262 224.416 205.437 224.129 205.786C223.849 206.128 223.702 206.536 223.686 207.01C223.678 207.095 223.674 207.247 223.674 207.464C223.674 207.674 223.678 207.821 223.686 207.907C223.702 208.404 223.845 208.835 224.117 209.2C224.397 209.557 224.808 209.736 225.352 209.736ZM231.21 210.645C230.829 210.645 230.476 210.567 230.149 210.412C229.831 210.256 229.575 210.047 229.38 209.783C229.194 209.511 229.101 209.212 229.101 208.886C229.101 208.373 229.311 207.953 229.73 207.627C230.149 207.301 230.72 207.084 231.443 206.975L233.19 206.73V206.392C233.19 205.592 232.728 205.192 231.804 205.192C231.447 205.192 231.159 205.266 230.942 205.414C230.724 205.553 230.565 205.72 230.464 205.915C230.433 205.992 230.398 206.047 230.359 206.078C230.328 206.101 230.281 206.113 230.219 206.113H229.765C229.695 206.113 229.633 206.089 229.579 206.043C229.532 205.988 229.509 205.926 229.509 205.856C229.509 205.678 229.59 205.472 229.753 205.239C229.924 204.998 230.184 204.792 230.534 204.621C230.883 204.443 231.311 204.353 231.816 204.353C232.685 204.353 233.307 204.555 233.68 204.959C234.06 205.363 234.251 205.868 234.251 206.474V210.26C234.251 210.338 234.223 210.404 234.169 210.458C234.122 210.505 234.06 210.528 233.983 210.528H233.47C233.392 210.528 233.33 210.505 233.284 210.458C233.237 210.404 233.214 210.338 233.214 210.26V209.748C233.043 210.004 232.794 210.218 232.468 210.389C232.142 210.559 231.722 210.645 231.21 210.645ZM231.443 209.794C231.955 209.794 232.375 209.627 232.701 209.293C233.027 208.959 233.19 208.474 233.19 207.837V207.511L231.827 207.709C231.268 207.786 230.845 207.919 230.557 208.105C230.27 208.291 230.126 208.524 230.126 208.804C230.126 209.122 230.254 209.367 230.511 209.538C230.775 209.709 231.085 209.794 231.443 209.794ZM236.206 210.528C236.128 210.528 236.062 210.505 236.008 210.458C235.961 210.404 235.938 210.338 235.938 210.26V204.738C235.938 204.66 235.961 204.598 236.008 204.551C236.062 204.497 236.128 204.47 236.206 204.47H236.707C236.792 204.47 236.858 204.493 236.905 204.54C236.951 204.586 236.975 204.652 236.975 204.738V205.25C237.208 204.963 237.476 204.742 237.779 204.586C238.089 204.431 238.474 204.353 238.932 204.353C239.678 204.353 240.256 204.594 240.668 205.076C241.08 205.549 241.285 206.179 241.285 206.963V210.26C241.285 210.338 241.258 210.404 241.204 210.458C241.157 210.505 241.095 210.528 241.018 210.528H240.482C240.404 210.528 240.338 210.505 240.283 210.458C240.237 210.404 240.214 210.338 240.214 210.26V207.033C240.214 206.474 240.078 206.039 239.806 205.728C239.534 205.417 239.146 205.262 238.641 205.262C238.144 205.262 237.747 205.421 237.452 205.74C237.157 206.05 237.01 206.482 237.01 207.033V210.26C237.01 210.338 236.982 210.404 236.928 210.458C236.881 210.505 236.819 210.528 236.742 210.528H236.206ZM243.249 210.528C243.171 210.528 243.105 210.505 243.051 210.458C243.004 210.404 242.981 210.338 242.981 210.26V202.524C242.981 202.439 243.004 202.373 243.051 202.326C243.105 202.279 243.171 202.256 243.249 202.256H243.75C243.828 202.256 243.89 202.283 243.936 202.338C243.991 202.384 244.018 202.446 244.018 202.524V206.59L246.348 204.668C246.465 204.582 246.546 204.528 246.593 204.505C246.639 204.481 246.713 204.47 246.814 204.47H247.397C247.466 204.47 247.521 204.493 247.56 204.54C247.606 204.579 247.63 204.637 247.63 204.714C247.63 204.784 247.587 204.858 247.501 204.936L244.775 207.173L247.793 210.062C247.878 210.148 247.921 210.222 247.921 210.284C247.921 210.354 247.898 210.412 247.851 210.458C247.812 210.505 247.758 210.528 247.688 210.528H247.117C247 210.528 246.915 210.517 246.861 210.493C246.814 210.47 246.744 210.416 246.651 210.33L244.018 207.837V210.26C244.018 210.338 243.991 210.404 243.936 210.458C243.89 210.505 243.828 210.528 243.75 210.528H243.249ZM249.129 210.528C249.051 210.528 248.985 210.505 248.931 210.458C248.884 210.404 248.861 210.338 248.861 210.26V209.456C248.861 209.379 248.884 209.313 248.931 209.258C248.985 209.204 249.051 209.177 249.129 209.177H249.933C250.011 209.177 250.073 209.204 250.119 209.258C250.174 209.313 250.201 209.379 250.201 209.456V210.26C250.201 210.338 250.174 210.404 250.119 210.458C250.073 210.505 250.011 210.528 249.933 210.528H249.129ZM252.042 210.528C251.964 210.528 251.898 210.505 251.844 210.458C251.797 210.404 251.774 210.338 251.774 210.26V209.456C251.774 209.379 251.797 209.313 251.844 209.258C251.898 209.204 251.964 209.177 252.042 209.177H252.846C252.923 209.177 252.985 209.204 253.032 209.258C253.086 209.313 253.114 209.379 253.114 209.456V210.26C253.114 210.338 253.086 210.404 253.032 210.458C252.985 210.505 252.923 210.528 252.846 210.528H252.042ZM254.954 210.528C254.877 210.528 254.811 210.505 254.756 210.458C254.71 210.404 254.687 210.338 254.687 210.26V209.456C254.687 209.379 254.71 209.313 254.756 209.258C254.811 209.204 254.877 209.177 254.954 209.177H255.758C255.836 209.177 255.898 209.204 255.945 209.258C255.999 209.313 256.026 209.379 256.026 209.456V210.26C256.026 210.338 255.999 210.404 255.945 210.458C255.898 210.505 255.836 210.528 255.758 210.528H254.954Z" fill="#121025"/>
<defs>
<filter id="filter0_d" x="11.9926" y="91.0585" width="354.015" height="254.015" filterUnits="userSpaceOnUse" color-interpolation-filters="sRGB">
<feFlood flood-opacity="0" result="BackgroundImageFix"/>
<feColorMatrix in="SourceAlpha" type="matrix" values="0 0 0 0 0 0 0 0 0 0 0 0 0 0 0 0 0 0 127 0" result="hardAlpha"/>
<feOffset dy="4.06593"/>
<feGaussianBlur stdDeviation="10.5037"/>
<feColorMatrix type="matrix" values="0 0 0 0 0.0705882 0 0 0 0 0.0627451 0 0 0 0 0.145098 0 0 0 0.16 0"/>
<feBlend mode="normal" in2="BackgroundImageFix" result="effect1_dropShadow"/>
<feBlend mode="normal" in="SourceGraphic" in2="effect1_dropShadow" result="shape"/>
</filter>
<filter id="filter1_d" x="104.091" y="256.512" width="50.147" height="50.1469" filterUnits="userSpaceOnUse" color-interpolation-filters="sRGB">
<feFlood flood-opacity="0" result="BackgroundImageFix"/>
<feColorMatrix in="SourceAlpha" type="matrix" values="0 0 0 0 0 0 0 0 0 0 0 0 0 0 0 0 0 0 127 0" result="hardAlpha"/>
<feOffset dy="5.42125"/>
<feGaussianBlur stdDeviation="7.45421"/>
<feColorMatrix type="matrix" values="0 0 0 0 0.0705882 0 0 0 0 0.0627451 0 0 0 0 0.145098 0 0 0 0.08 0"/>
<feBlend mode="normal" in2="BackgroundImageFix" result="effect1_dropShadow"/>
<feBlend mode="normal" in="SourceGraphic" in2="effect1_dropShadow" result="shape"/>
</filter>
</defs>
</svg>
