<svg width="555" height="490" viewBox="0 0 555 490" fill="none" xmlns="http://www.w3.org/2000/svg">
<g clip-path="url(#clip0)">
<path d="M509.172 102.117L227.222 14.2772C201.912 6.39212 175.002 20.5177 167.117 45.8275L79.2772 327.778C71.3922 353.088 85.5177 379.998 110.828 387.883L392.779 475.723C418.088 483.608 444.998 469.482 452.883 444.172L540.723 162.221C548.608 136.912 534.482 110.002 509.172 102.117Z" fill="#8D90DC"/>
<path d="M145.366 220.519L101.989 203.656C95.9302 201.301 89.1098 204.303 86.7547 210.362L69.8924 253.739C67.5373 259.797 70.5394 266.618 76.5977 268.973L119.975 285.835C126.033 288.19 132.854 285.188 135.209 279.13L152.071 235.752C154.426 229.694 151.424 222.874 145.366 220.519Z" fill="white"/>
<path d="M145.366 220.519L101.989 203.656C95.9302 201.301 89.1098 204.303 86.7547 210.362L69.8924 253.739C67.5373 259.797 70.5394 266.618 76.5977 268.973L119.975 285.835C126.033 288.19 132.854 285.188 135.209 279.13L152.071 235.752C154.426 229.694 151.424 222.874 145.366 220.519Z" fill="#6EFBE6"/>
<path d="M19.5823 239.895L55.8741 210.76C60.9428 206.691 68.3505 207.501 72.4196 212.57L101.554 248.862C105.623 253.93 104.813 261.338 99.7443 265.407L63.4525 294.542C58.3838 298.611 50.9761 297.8 46.907 292.732L17.7723 256.44C13.7032 251.371 14.5136 243.964 19.5823 239.895Z" fill="#FF442C"/>
<path d="M111.64 196.213L44.5011 206.555C38.0769 207.545 33.6713 213.555 34.6609 219.979L45.0031 287.118C45.9927 293.542 52.0028 297.948 58.4269 296.958L125.566 286.616C131.99 285.627 136.396 279.616 135.406 273.192L125.064 206.053C124.075 199.629 118.064 195.223 111.64 196.213Z" fill="#2F2B5B"/>
<path d="M112.639 177.031L114.699 164.95" stroke="#2F2B5B" stroke-width="4" stroke-linecap="round"/>
<path d="M128.433 186.43L142.603 167.975" stroke="#2F2B5B" stroke-width="4" stroke-linecap="round"/>
<path d="M55.9232 239.471C58.0172 233.37 66.4847 232.065 70.3179 237.254" stroke="white" stroke-width="5.14042" stroke-linecap="round"/>
<path d="M94.0267 233.601C96.1207 227.5 104.588 226.195 108.421 231.384" stroke="white" stroke-width="5.14042" stroke-linecap="round"/>
<path d="M197 119.317C224.761 125.098 284.439 146.718 301.066 186.949C321.849 237.236 300.711 311.017 316.43 351.734C329.004 384.307 370.821 406.588 390.158 413.657" stroke="white" stroke-width="6" stroke-linecap="round"/>
<path d="M225.079 137.985C230.602 137.985 235.079 133.508 235.079 127.985C235.079 122.462 230.602 117.985 225.079 117.985C219.556 117.985 215.079 122.462 215.079 127.985C215.079 133.508 219.556 137.985 225.079 137.985Z" fill="#FF4B33"/>
<path d="M310 276C315.523 276 320 271.523 320 266C320 260.477 315.523 256 310 256C304.477 256 300 260.477 300 266C300 271.523 304.477 276 310 276Z" fill="white"/>
<path d="M363.079 410.985C368.602 410.985 373.079 406.508 373.079 400.985C373.079 395.462 368.602 390.985 363.079 390.985C357.556 390.985 353.079 395.462 353.079 400.985C353.079 406.508 357.556 410.985 363.079 410.985Z" fill="#6EFBE6"/>
</g>
<defs>
<clipPath id="clip0">
<rect width="555" height="490" fill="white"/>
</clipPath>
</defs>
</svg>
