<svg width="497" height="471" viewBox="0 0 497 471" fill="none" xmlns="http://www.w3.org/2000/svg">
<path d="M51.3297 125.361L308.901 18.4076C333.384 8.24135 361.472 19.8473 371.639 44.3302L478.592 301.901C488.758 326.384 477.152 354.473 452.669 364.639L195.098 471.592C170.615 481.759 142.527 470.153 132.36 445.67L25.4071 188.099C15.2408 163.616 26.8468 135.527 51.3297 125.361Z" fill="#F0F0F4"/>
<g filter="url(#filter0_d)">
<path d="M358.203 126.248L220.319 113.498C211.375 112.67 203.453 119.251 202.626 128.195L174.498 432.369C173.671 441.313 180.251 449.234 189.195 450.062L327.079 462.812C336.023 463.64 343.944 457.059 344.771 448.115L372.9 143.941C373.727 134.997 367.147 127.076 358.203 126.248Z" fill="white"/>
</g>
<mask id="mask0" style="mask-type:alpha" maskUnits="userSpaceOnUse" x="173" y="112" width="202" height="353">
<path d="M358.203 126.248L220.319 113.498C211.375 112.67 203.453 119.251 202.626 128.195L174.498 432.369C173.671 441.313 180.251 449.234 189.195 450.062L327.079 462.812C336.023 463.64 343.944 457.059 344.771 448.115L372.9 143.941C373.727 134.997 367.147 127.076 358.203 126.248Z" fill="white"/>
</mask>
<g mask="url(#mask0)">
<path d="M284.141 243.954L281.548 228.814C281.19 226.724 279.205 225.319 277.115 225.677L261.975 228.27C259.885 228.628 258.48 230.612 258.838 232.703L261.431 247.842C261.789 249.933 263.773 251.337 265.864 250.979L281.004 248.387C283.094 248.029 284.498 246.044 284.141 243.954Z" fill="#2F2B5B"/>
<path d="M296.854 240.2L294.645 238.637C293.524 237.843 291.972 238.109 291.178 239.23L289.615 241.439C288.822 242.561 289.088 244.113 290.209 244.906L292.418 246.469C293.539 247.263 295.091 246.997 295.885 245.876L297.448 243.667C298.241 242.545 297.975 240.993 296.854 240.2Z" fill="#FF6955"/>
<path d="M292.684 220.816L267.83 218.518C265.718 218.322 263.848 219.876 263.652 221.988L261.354 246.842C261.159 248.954 262.712 250.824 264.824 251.019L289.678 253.318C291.79 253.513 293.66 251.959 293.856 249.848L296.154 224.993C296.349 222.882 294.796 221.011 292.684 220.816Z" fill="#3EC0AD"/>
<path d="M296.002 215.416L297.429 211.339" stroke="#2F2B5B" stroke-width="2.40003" stroke-linecap="round"/>
<path d="M301.812 219.836L308.088 214.622" stroke="#2F2B5B" stroke-width="2.40003" stroke-linecap="round"/>
<path d="M273.63 233.977L277.538 239.18L285.365 232.191" stroke="white" stroke-width="1.92002" stroke-linecap="round" stroke-linejoin="round"/>
<path d="M225.836 271.772C225.784 273.134 226.849 274.099 228.568 274.258C230.339 274.422 231.55 273.624 231.683 272.191C231.785 271.083 231.191 270.385 229.63 269.901L228.813 269.65C227.847 269.348 227.491 268.942 227.542 268.389C227.606 267.693 228.3 267.321 229.191 267.404C230.113 267.489 230.697 268.016 230.7 268.787L231.844 268.893C231.93 267.561 230.913 266.547 229.3 266.398C227.681 266.248 226.454 267.039 226.334 268.341C226.233 269.438 226.858 270.208 228.352 270.67L229.163 270.921C230.16 271.236 230.527 271.642 230.472 272.233C230.409 272.913 229.673 273.344 228.708 273.255C227.696 273.162 227.021 272.642 226.985 271.878L225.836 271.772ZM237.782 269.389L236.644 269.284L236.345 272.515C236.265 273.38 235.717 273.903 234.894 273.827C234.109 273.755 233.75 273.264 233.828 272.421L234.14 269.052L233.001 268.947L232.669 272.537C232.551 273.807 233.217 274.661 234.424 274.773C235.273 274.851 235.872 274.529 236.239 273.893L236.265 273.896L236.178 274.834L237.27 274.935L237.782 269.389ZM243.602 271.852C243.603 270.751 242.818 269.754 241.389 269.622C239.813 269.476 238.677 270.493 238.514 272.253C238.349 274.046 239.281 275.227 240.868 275.374C242.202 275.497 243.22 274.783 243.45 273.614L242.354 273.512C242.162 274.143 241.668 274.486 240.967 274.421C240.081 274.339 239.561 273.578 239.674 272.361C239.784 271.169 240.432 270.49 241.312 270.571C242.056 270.64 242.455 271.15 242.516 271.751L243.602 271.852ZM249.288 272.378C249.289 271.277 248.504 270.279 247.075 270.147C245.499 270.002 244.363 271.018 244.2 272.779C244.034 274.571 244.967 275.753 246.554 275.9C247.887 276.023 248.905 275.309 249.135 274.139L248.039 274.038C247.848 274.669 247.353 275.011 246.652 274.947C245.767 274.865 245.247 274.104 245.359 272.886C245.47 271.695 246.117 271.016 246.998 271.097C247.741 271.166 248.14 271.676 248.202 272.277L249.288 272.378ZM252.633 271.586C253.429 271.66 253.912 272.306 253.86 273.157L251.087 272.9C251.222 272.067 251.837 271.513 252.633 271.586ZM253.701 274.812C253.504 275.282 252.994 275.565 252.345 275.505C251.433 275.421 250.912 274.729 251.002 273.764L251.008 273.696L254.925 274.058L254.961 273.668C255.116 271.986 254.257 270.812 252.718 270.669C251.152 270.524 250.044 271.592 249.883 273.331C249.721 275.081 250.605 276.274 252.234 276.425C253.504 276.542 254.53 275.909 254.782 274.911L253.701 274.812ZM255.956 272.654C255.881 273.461 256.356 274.015 257.388 274.355L258.27 274.649C258.864 274.842 259.05 275.072 259.017 275.431C258.975 275.884 258.527 276.13 257.841 276.066C257.146 276.002 256.776 275.681 256.725 275.091L255.597 274.987C255.604 276.051 256.375 276.808 257.761 276.936C259.068 277.057 260.076 276.448 260.17 275.436C260.244 274.635 259.853 274.152 258.744 273.784L257.861 273.495C257.273 273.302 257.042 273.042 257.074 272.694C257.115 272.251 257.554 271.988 258.171 272.045C258.809 272.104 259.173 272.478 259.186 273.022L260.256 273.121C260.314 272.095 259.542 271.3 258.251 271.181C256.975 271.063 256.047 271.663 255.956 272.654ZM261.283 273.147C261.208 273.953 261.683 274.508 262.715 274.848L263.597 275.142C264.191 275.335 264.377 275.565 264.344 275.923C264.302 276.377 263.854 276.622 263.168 276.559C262.472 276.495 262.103 276.173 262.052 275.584L260.923 275.479C260.931 276.543 261.701 277.301 263.088 277.429C264.395 277.55 265.403 276.941 265.497 275.929C265.571 275.128 265.18 274.645 264.071 274.276L263.188 273.987C262.6 273.795 262.369 273.534 262.401 273.186C262.442 272.743 262.881 272.481 263.498 272.538C264.136 272.597 264.5 272.971 264.513 273.514L265.583 273.613C265.641 272.587 264.869 271.793 263.578 271.673C262.302 271.555 261.374 272.156 261.283 273.147ZM266.674 277.654L267.818 277.76L268.248 273.116L269.355 273.218L269.437 272.327L268.314 272.223L268.363 271.701C268.408 271.211 268.663 270.985 269.158 271.03C269.311 271.045 269.463 271.069 269.572 271.101L269.65 270.257C269.505 270.217 269.249 270.167 269.017 270.145C267.889 270.041 267.336 270.5 267.236 271.576L267.186 272.119L266.422 272.048L266.339 272.939L267.104 273.01L266.674 277.654ZM275.197 272.849L274.059 272.744L273.76 275.975C273.68 276.84 273.132 277.363 272.309 277.287C271.524 277.215 271.165 276.724 271.243 275.881L271.555 272.512L270.416 272.407L270.084 275.997C269.967 277.267 270.632 278.121 271.839 278.233C272.688 278.311 273.287 277.989 273.654 277.353L273.68 277.356L273.593 278.294L274.685 278.395L275.197 272.849ZM275.963 278.513L277.102 278.618L277.805 271.011L276.666 270.906L275.963 278.513ZM278.422 278.74L279.561 278.846L280.264 271.239L279.126 271.133L278.422 278.74ZM286.55 273.808C285.749 273.734 285.073 274.081 284.687 274.689L284.666 274.687L284.755 273.733L283.653 273.631L282.97 281.011L284.109 281.117L284.363 278.37L284.389 278.372C284.649 279.019 285.245 279.467 286.041 279.541C287.433 279.669 288.458 278.642 288.621 276.887C288.783 275.131 287.958 273.939 286.55 273.808ZM285.809 278.546C284.934 278.465 284.423 277.663 284.53 276.509C284.636 275.365 285.291 274.66 286.161 274.74C287.062 274.823 287.558 275.619 287.45 276.779C287.343 277.944 286.71 278.63 285.809 278.546ZM291.367 279.124C290.756 279.068 290.384 278.714 290.429 278.229C290.473 277.755 290.886 277.49 291.57 277.505L292.943 277.547L292.903 277.985C292.836 278.707 292.163 279.198 291.367 279.124ZM290.967 279.996C291.695 280.064 292.432 279.738 292.811 279.151L292.837 279.154L292.753 280.066L293.844 280.167L294.198 276.345C294.3 275.232 293.507 274.441 292.163 274.317C290.792 274.19 289.87 274.849 289.714 275.845L290.789 275.944C290.935 275.458 291.376 275.18 292.035 275.241C292.731 275.305 293.113 275.713 293.056 276.329L293.016 276.756L291.49 276.706C290.165 276.658 289.367 277.185 289.277 278.155C289.185 279.151 289.882 279.896 290.967 279.996ZM295.422 282.397C296.571 282.503 297.159 282.121 297.758 280.821L300.374 275.177L299.173 275.066L297.353 279.449L297.332 279.447L296.347 274.805L295.113 274.691L296.603 280.427C296.603 280.432 296.472 280.75 296.471 280.76C296.245 281.314 295.94 281.509 295.412 281.46C295.318 281.451 295.128 281.434 295.045 281.405L294.96 282.327C295.043 282.351 295.327 282.388 295.422 282.397ZM300.639 280.795L301.778 280.9L302.095 277.474C302.16 276.762 302.689 276.279 303.364 276.342C304.007 276.401 304.375 276.845 304.316 277.482L303.981 281.104L305.099 281.207L305.419 277.744C305.484 277.043 306 276.585 306.674 276.648C307.349 276.71 307.696 277.157 307.63 277.874L307.302 281.411L308.446 281.517L308.799 277.706C308.901 276.604 308.251 275.81 307.155 275.709C306.364 275.635 305.672 275.986 305.325 276.635L305.299 276.632C305.141 275.921 304.619 275.474 303.849 275.403C303.101 275.334 302.483 275.691 302.178 276.285L302.152 276.283L302.238 275.35L301.152 275.249L300.639 280.795ZM312.413 277.115C313.209 277.188 313.692 277.834 313.64 278.685L310.867 278.428C311.002 277.596 311.617 277.041 312.413 277.115ZM313.481 280.34C313.283 280.811 312.774 281.093 312.125 281.033C311.213 280.949 310.692 280.257 310.781 279.292L310.788 279.224L314.705 279.586L314.741 279.196C314.896 277.514 314.037 276.34 312.498 276.197C310.932 276.053 309.823 277.12 309.662 278.859C309.501 280.61 310.384 281.802 312.013 281.953C313.284 282.071 314.31 281.437 314.562 280.44L313.481 280.34ZM315.468 282.166L316.607 282.272L316.906 279.04C316.985 278.181 317.554 277.659 318.356 277.733C319.146 277.806 319.494 278.301 319.417 279.134L319.106 282.503L320.25 282.608L320.582 279.018C320.699 277.748 320.07 276.903 318.847 276.79C317.993 276.711 317.366 277.046 317.008 277.651L316.981 277.649L317.067 276.721L315.981 276.62L315.468 282.166ZM322.426 275.893L322.304 277.205L321.498 277.131L321.414 278.032L322.221 278.107L321.926 281.291C321.827 282.361 322.226 282.828 323.348 282.932C323.601 282.956 323.856 282.958 323.986 282.938L324.069 282.037C323.994 282.046 323.809 282.039 323.693 282.028C323.229 281.985 323.038 281.75 323.082 281.27L323.365 278.212L324.419 278.31L324.503 277.408L323.448 277.311L323.57 275.998L322.426 275.893Z" fill="#121025"/>
<path d="M330.717 420.955L193.063 408.225C190.082 407.95 187.441 410.143 187.166 413.124L186.167 423.921C185.892 426.902 188.085 429.542 191.066 429.818L328.721 442.548C331.702 442.823 334.342 440.63 334.618 437.649L335.616 426.852C335.892 423.871 333.699 421.231 330.717 420.955Z" fill="#2F2B5B"/>
<path opacity="0.5" d="M286.659 426.409L235.376 421.667C234.63 421.598 233.97 422.146 233.901 422.892C233.832 423.637 234.381 424.297 235.126 424.366L286.409 429.108C287.154 429.177 287.814 428.629 287.883 427.884C287.952 427.138 287.404 426.478 286.659 426.409Z" fill="white"/>
<path d="M333.447 362L201.191 349.77C196.719 349.356 192.759 352.646 192.345 357.118L188.913 394.231C188.5 398.703 191.79 402.664 196.262 403.077L328.518 415.307C332.99 415.721 336.95 412.431 337.364 407.959L340.796 370.846C341.209 366.374 337.919 362.414 333.447 362Z" fill="#F5F4F7"/>
<path d="M207.596 383.539L202.198 383.04C200.241 382.859 198.508 384.298 198.327 386.254L197.828 391.653C197.647 393.609 199.087 395.342 201.043 395.523L206.441 396.022C208.398 396.203 210.131 394.764 210.312 392.807L210.811 387.409C210.992 385.452 209.552 383.72 207.596 383.539Z" fill="#2F2B5B" stroke="#F5F4F7" stroke-width="1.01648"/>
<path d="M216.369 384.35L210.971 383.851C209.014 383.67 207.281 385.109 207.1 387.066L206.601 392.464C206.42 394.42 207.86 396.153 209.816 396.334L215.214 396.833C217.171 397.014 218.904 395.575 219.085 393.618L219.584 388.22C219.765 386.263 218.325 384.531 216.369 384.35Z" fill="#3EC0AD" stroke="#F5F4F7" stroke-width="1.01648"/>
<path d="M225.141 385.161L219.743 384.662C217.786 384.481 216.053 385.92 215.872 387.877L215.373 393.275C215.192 395.231 216.632 396.964 218.588 397.145L223.986 397.644C225.943 397.825 227.676 396.386 227.857 394.429L228.356 389.031C228.537 387.074 227.097 385.342 225.141 385.161Z" fill="#FF6955" stroke="#F5F4F7" stroke-width="1.01648"/>
<g filter="url(#filter1_d)">
<path d="M215.35 358.565L205.903 357.691C202.922 357.415 200.282 359.609 200.006 362.59L199.132 372.037C198.857 375.018 201.05 377.659 204.031 377.934L213.478 378.808C216.459 379.084 219.1 376.89 219.376 373.909L220.249 364.462C220.525 361.481 218.331 358.84 215.35 358.565Z" fill="white"/>
<path d="M215.334 358.733L205.888 357.86C202.999 357.592 200.441 359.717 200.174 362.605L199.301 372.052C199.034 374.94 201.159 377.498 204.047 377.765L213.494 378.639C216.382 378.906 218.94 376.781 219.207 373.893L220.08 364.446C220.347 361.558 218.223 359 215.334 358.733Z" stroke="#EAEAEF" stroke-width="0.338828"/>
</g>
<path d="M215.181 369.941L213.974 367.378C213.531 366.438 212.377 366.06 211.394 366.532L208.805 367.777C207.823 368.249 207.385 369.393 207.827 370.332L209.034 372.896C209.476 373.835 210.631 374.213 211.614 373.741L214.203 372.496C215.185 372.024 215.623 370.88 215.181 369.941Z" fill="#3EC0AD"/>
<path d="M208.249 367.806L208.135 367.141C207.959 366.122 206.945 365.462 205.87 365.667L205.277 365.78C204.201 365.985 203.471 366.977 203.647 367.996L203.761 368.661C203.937 369.68 204.951 370.34 206.026 370.135L206.619 370.022C207.695 369.817 208.424 368.825 208.249 367.806Z" fill="#FF6955"/>
<path d="M214.135 366.151L210.148 363.485C209.262 362.893 208.058 363.123 207.457 363.998L204.532 368.256C203.93 369.131 204.161 370.32 205.046 370.912L209.033 373.578C209.918 374.17 211.123 373.941 211.724 373.066L214.649 368.807C215.25 367.932 215.02 366.743 214.135 366.151Z" fill="#2F2B5B"/>
<path d="M225.545 371.847C225.527 373.003 226.431 373.841 227.842 373.971C229.365 374.112 230.401 373.421 230.514 372.199C230.604 371.221 230.1 370.635 228.753 370.161L228.073 369.912C227.177 369.592 226.841 369.259 226.889 368.738C226.951 368.064 227.578 367.675 228.464 367.757C229.294 367.834 229.819 368.292 229.871 368.985L230.706 369.063C230.736 367.982 229.848 367.127 228.561 367.008C227.154 366.878 226.137 367.556 226.033 368.686C225.945 369.632 226.416 370.224 227.592 370.64L228.425 370.941C229.322 371.256 229.704 371.654 229.651 372.222C229.59 372.881 228.886 373.305 227.991 373.222C227.045 373.134 226.422 372.63 226.385 371.924L225.545 371.847ZM231.672 374.167L232.465 374.24L232.737 371.297C232.815 370.458 233.356 369.94 234.246 370.023C234.998 370.092 235.354 370.567 235.273 371.448L234.993 374.474L235.786 374.547L236.084 371.328C236.192 370.161 235.59 369.426 234.538 369.329C233.777 369.258 233.226 369.533 232.926 370.059L232.852 370.052L233.107 367.294L232.314 367.22L231.672 374.167ZM239.27 374.958C240.686 375.089 241.653 374.192 241.8 372.596C241.948 370.996 241.162 369.941 239.746 369.81C238.33 369.679 237.363 370.572 237.215 372.172C237.068 373.768 237.854 374.827 239.27 374.958ZM239.336 374.243C238.395 374.156 237.928 373.424 238.036 372.248C238.146 371.067 238.739 370.438 239.68 370.525C240.621 370.612 241.089 371.339 240.979 372.52C240.871 373.696 240.277 374.33 239.336 374.243ZM245.706 370.361C245.028 370.299 244.4 370.59 244.029 371.132L243.956 371.125L244.032 370.295L243.276 370.225L242.662 376.858L243.456 376.932L243.678 374.524L243.752 374.531C243.976 375.082 244.519 375.443 245.23 375.509C246.493 375.626 247.413 374.683 247.557 373.128C247.702 371.565 246.974 370.479 245.706 370.361ZM245.107 374.777C244.212 374.694 243.711 373.922 243.816 372.783C243.922 371.639 244.555 370.976 245.455 371.059C246.364 371.143 246.844 371.89 246.736 373.053C246.629 374.215 246.02 374.861 245.107 374.777Z" fill="#121025"/>
<path d="M257.814 392.436L236.222 390.439C235.476 390.37 234.816 390.918 234.747 391.664C234.678 392.409 235.227 393.069 235.972 393.138L257.565 395.135C258.31 395.204 258.97 394.655 259.039 393.91C259.108 393.165 258.56 392.504 257.814 392.436Z" fill="#A19FB0"/>
<path d="M299.72 398.497L299.756 398.112L297.894 397.94C297.892 397.853 297.894 397.76 297.903 397.665C297.912 397.573 297.927 397.484 297.941 397.399L299.806 397.572L299.842 397.186L298.062 397.022C298.34 396.389 298.932 396.095 299.657 396.162C299.884 396.183 300.139 396.23 300.284 396.28L300.351 395.562C300.213 395.506 299.936 395.45 299.712 395.43C298.522 395.32 297.547 395.841 297.193 396.941L296.534 396.88L296.498 397.266L297.098 397.321C297.083 397.406 297.072 397.495 297.063 397.587C297.055 397.679 297.049 397.772 297.048 397.862L296.448 397.806L296.412 398.192L297.071 398.253C297.222 399.393 298.085 400.081 299.271 400.191C299.512 400.213 299.774 400.217 299.932 400.192L299.999 399.47C299.864 399.494 299.589 399.486 299.342 399.463C298.627 399.397 298.099 399.002 297.941 398.333L299.72 398.497ZM302.108 400.45L302.959 400.528L303.398 395.774L302.551 395.695L301.229 396.45L301.153 397.268L302.413 396.547L302.469 396.552L302.108 400.45ZM304.546 401.944L305.3 400.007L304.473 399.931L303.982 401.892L304.546 401.944ZM308.418 401.033L309.232 401.108L309.316 400.202L309.958 400.262L310.025 399.543L309.382 399.484L309.672 396.354L308.472 396.243C307.736 397.165 306.96 398.187 306.244 399.204L306.179 399.912L308.502 400.127L308.418 401.033ZM307.035 399.24C307.574 398.483 308.205 397.66 308.761 396.968L308.807 396.972L308.58 399.43L307.031 399.287L307.035 399.24ZM312.044 399.235L312.64 399.29C313.226 399.344 313.555 399.667 313.512 400.135C313.47 400.59 313.056 400.861 312.509 400.81C311.959 400.759 311.613 400.445 311.617 400.003L310.803 399.928C310.763 400.798 311.419 401.43 312.453 401.526C313.481 401.621 314.3 401.099 314.376 400.278C314.436 399.632 314.069 399.176 313.433 399.018L313.438 398.962C313.954 398.877 314.349 398.528 314.405 397.955C314.472 397.27 313.956 396.63 312.944 396.537C311.913 396.442 311.213 396.965 311.093 397.801L311.89 397.875C311.97 397.41 312.317 397.177 312.834 397.225C313.338 397.271 313.61 397.605 313.574 397.994C313.535 398.419 313.171 398.685 312.683 398.64L312.104 398.586L312.044 399.235ZM316.885 401.936C317.922 402.032 318.681 401.414 318.773 400.416C318.861 399.46 318.259 398.79 317.445 398.714C316.961 398.67 316.596 398.805 316.358 399.079L316.302 399.074L316.561 397.712L318.748 397.914L318.815 397.199L315.965 396.936L315.448 399.679L316.219 399.751C316.409 399.459 316.74 399.3 317.145 399.338C317.669 399.386 318.003 399.796 317.951 400.356C317.898 400.929 317.494 401.278 316.947 401.227C316.462 401.182 316.123 400.862 316.111 400.415L315.317 400.342C315.276 401.182 315.903 401.845 316.885 401.936ZM319.894 402.164C320.207 402.193 320.442 401.989 320.469 401.692C320.497 401.392 320.303 401.152 319.99 401.123C319.681 401.094 319.443 401.295 319.415 401.595C319.388 401.891 319.584 402.135 319.894 402.164ZM323.013 402.502C324.051 402.598 324.809 401.981 324.901 400.982C324.99 400.027 324.387 399.356 323.573 399.281C323.089 399.236 322.724 399.372 322.486 399.646L322.43 399.641L322.689 398.279L324.877 398.481L324.943 397.766L322.093 397.503L321.577 400.246L322.348 400.317C322.537 400.026 322.868 399.867 323.273 399.905C323.797 399.953 324.131 400.363 324.079 400.923C324.026 401.496 323.622 401.844 323.075 401.794C322.591 401.749 322.252 401.428 322.24 400.982L321.446 400.909C321.405 401.749 322.031 402.412 323.013 402.502ZM327.402 402.908C328.538 403.013 329.299 402.153 329.444 400.582C329.59 399.003 328.99 398.021 327.863 397.917C326.733 397.812 325.963 398.668 325.817 400.24C325.672 401.818 326.262 402.803 327.402 402.908ZM327.467 402.203C326.864 402.147 326.568 401.499 326.677 400.319C326.786 399.149 327.201 398.57 327.798 398.625C328.394 398.68 328.694 399.323 328.585 400.496C328.476 401.675 328.07 402.259 327.467 402.203Z" fill="#121025"/>
</g>
<defs>
<filter id="filter0_d" x="151.993" y="95.0585" width="243.412" height="394.325" filterUnits="userSpaceOnUse" color-interpolation-filters="sRGB">
<feFlood flood-opacity="0" result="BackgroundImageFix"/>
<feColorMatrix in="SourceAlpha" type="matrix" values="0 0 0 0 0 0 0 0 0 0 0 0 0 0 0 0 0 0 127 0" result="hardAlpha"/>
<feOffset dy="4.06593"/>
<feGaussianBlur stdDeviation="10.5037"/>
<feColorMatrix type="matrix" values="0 0 0 0 0.0705882 0 0 0 0 0.0627451 0 0 0 0 0.145098 0 0 0 0.16 0"/>
<feBlend mode="normal" in2="BackgroundImageFix" result="effect1_dropShadow"/>
<feBlend mode="normal" in="SourceGraphic" in2="effect1_dropShadow" result="shape"/>
</filter>
<filter id="filter1_d" x="184.2" y="348.18" width="50.9806" height="50.9809" filterUnits="userSpaceOnUse" color-interpolation-filters="sRGB">
<feFlood flood-opacity="0" result="BackgroundImageFix"/>
<feColorMatrix in="SourceAlpha" type="matrix" values="0 0 0 0 0 0 0 0 0 0 0 0 0 0 0 0 0 0 127 0" result="hardAlpha"/>
<feOffset dy="5.42125"/>
<feGaussianBlur stdDeviation="7.45421"/>
<feColorMatrix type="matrix" values="0 0 0 0 0.0705882 0 0 0 0 0.0627451 0 0 0 0 0.145098 0 0 0 0.08 0"/>
<feBlend mode="normal" in2="BackgroundImageFix" result="effect1_dropShadow"/>
<feBlend mode="normal" in="SourceGraphic" in2="effect1_dropShadow" result="shape"/>
</filter>
</defs>
</svg>
