<svg width="490" height="551" viewBox="0 0 490 551" fill="none" xmlns="http://www.w3.org/2000/svg">
<path d="M160.19 13.9662L444.077 100.301C469.439 108.014 483.747 134.828 476.034 160.19L389.699 444.077C381.986 469.439 355.172 483.747 329.81 476.034L45.9235 389.699C20.5608 381.986 6.25304 355.172 13.9663 329.81L100.301 45.9234C108.014 20.5607 134.828 6.25294 160.19 13.9662Z" fill="#5B2B59"/>
<g filter="url(#filter0_d)">
<path d="M206.587 94.6897L69.2981 116.434C60.5704 117.816 54.6157 126.012 55.9981 134.74L103.867 436.973C105.249 445.7 113.445 451.655 122.173 450.273L259.462 428.528C268.189 427.146 274.144 418.95 272.762 410.222L224.893 107.99C223.51 99.262 215.315 93.3073 206.587 94.6897Z" fill="white"/>
</g>
<path d="M138.268 185.31L128.052 191.021L118.378 189.294C117.699 189.173 117.105 189.758 117.215 190.438L117.613 192.89C117.681 193.309 118.007 193.64 118.425 193.714L128.815 195.561L139.008 189.871L150.488 192.054L160.688 186.353L172.149 188.53L182.101 183.117C182.474 182.914 182.678 182.497 182.61 182.078L182.213 179.635C182.103 178.954 181.354 178.587 180.748 178.916L171.437 183.982L159.948 181.792L149.748 187.493L138.268 185.31ZM129.89 199.99C126.324 200.569 123.857 203.948 124.429 207.473L125.819 216.042C126.391 219.566 129.8 221.992 133.366 221.413C136.932 220.835 139.399 217.456 138.827 213.931L137.437 205.362C136.865 201.838 133.457 199.412 129.89 199.99ZM156.575 199.895C153.1 200.459 150.503 203.611 151.061 207.051L151.862 211.988C152.42 215.428 155.881 217.597 159.356 217.033C162.831 216.47 165.428 213.317 164.87 209.878L164.069 204.94C163.511 201.501 160.05 199.331 156.575 199.895ZM173.919 197.081C170.444 197.645 167.847 200.797 168.405 204.237L169.206 209.174C169.764 212.614 173.225 214.783 176.7 214.219C180.174 213.656 182.772 210.503 182.214 207.064L181.413 202.126C180.855 198.687 177.394 196.517 173.919 197.081ZM130.585 204.275C131.806 204.077 132.905 204.86 133.101 206.066L134.491 214.635C134.687 215.841 133.891 216.931 132.671 217.129C131.45 217.327 130.351 216.544 130.155 215.338L128.765 206.769C128.569 205.563 129.365 204.473 130.585 204.275ZM157.27 204.18C158.582 203.967 159.582 204.713 159.733 205.644L160.534 210.581C160.685 211.512 159.973 212.536 158.661 212.749C157.349 212.962 156.349 212.215 156.198 211.285L155.397 206.347C155.246 205.417 155.958 204.392 157.27 204.18ZM174.614 201.366C175.926 201.153 176.926 201.899 177.077 202.83L177.878 207.767C178.029 208.698 177.317 209.722 176.004 209.935C174.692 210.148 173.693 209.401 173.542 208.471L172.741 203.533C172.59 202.603 173.302 201.578 174.614 201.366ZM143.485 215.211L144.18 219.496L148.516 218.792L147.821 214.508L143.485 215.211ZM124.878 231.422C124.333 231.511 123.962 232.024 124.051 232.57L124.426 234.88C124.514 235.425 125.028 235.795 125.573 235.707L188.638 225.475C189.183 225.386 189.553 224.873 189.465 224.327L189.09 222.017C189.002 221.472 188.488 221.102 187.943 221.19L124.878 231.422Z" fill="#2F2B5B"/>
<path d="M222.443 288.348L112.649 305.737C110.74 306.04 109.437 307.833 109.74 309.742C110.042 311.651 111.835 312.954 113.744 312.651L223.538 295.261C225.448 294.959 226.75 293.166 226.448 291.257C226.145 289.348 224.353 288.045 222.443 288.348Z" fill="#E7E7EB"/>
<path d="M213.967 310.769L117.457 326.055C115.548 326.357 114.245 328.15 114.548 330.059C114.85 331.968 116.643 333.271 118.552 332.968L215.062 317.683C216.971 317.38 218.274 315.587 217.971 313.678C217.669 311.769 215.876 310.466 213.967 310.769Z" fill="#E7E7EB"/>
<path d="M199.472 335.786L120.457 348.3C118.548 348.603 117.245 350.396 117.548 352.305C117.85 354.214 119.643 355.517 121.552 355.214L200.567 342.699C202.476 342.397 203.779 340.604 203.476 338.695C203.174 336.786 201.381 335.483 199.472 335.786Z" fill="#E7E7EB"/>
<path d="M92.8836 501.04L89.3477 481.287C88.2317 475.053 82.2736 470.905 76.0398 472.021L56.2872 475.557C50.0534 476.672 45.9046 482.631 47.0205 488.864L50.5565 508.617C51.6724 514.851 57.6306 519 63.8643 517.884L83.6169 514.348C89.8507 513.232 93.9996 507.274 92.8836 501.04Z" fill="#FF6955"/>
<path d="M169.153 433.258L160.566 385.287C159.45 379.053 153.491 374.905 147.258 376.021L99.287 384.608C93.0532 385.724 88.9044 391.682 90.0203 397.916L98.6077 445.887C99.7236 452.12 105.682 456.269 111.916 455.153L159.886 446.566C166.12 445.45 170.269 439.492 169.153 433.258Z" fill="#3EC0AD"/>
<path d="M130.905 396.271L57.5382 409.404C51.3045 410.52 47.1556 416.479 48.2715 422.712L61.4052 496.079C62.5211 502.313 68.4793 506.462 74.7131 505.346L148.08 492.212C154.314 491.096 158.463 485.138 157.347 478.905L144.213 405.538C143.097 399.304 137.139 395.155 130.905 396.271Z" fill="#2F2B5B"/>
<path fill-rule="evenodd" clip-rule="evenodd" d="M78.3904 454.004C77.2371 452.919 77.1814 451.105 78.2661 449.952L97.2958 429.718C98.162 428.797 99.5294 428.552 100.661 429.115L125.529 441.491C126.946 442.197 127.523 443.918 126.818 445.335C126.112 446.752 124.392 447.329 122.974 446.624L100.013 435.197L82.4425 453.88C81.3579 455.033 79.5437 455.089 78.3904 454.004ZM101.799 445.165C103.357 444.886 104.847 445.923 105.125 447.481L108.156 464.412L116.622 462.897L114.601 451.61C114.322 450.051 115.359 448.562 116.918 448.283C118.476 448.004 119.966 449.041 120.245 450.599L122.265 461.887L126.498 461.129C128.057 460.85 129.546 461.887 129.825 463.446C130.104 465.004 129.067 466.494 127.508 466.773L85.1812 474.35C83.6228 474.629 82.1333 473.591 81.8543 472.033C81.5753 470.475 82.6125 468.985 84.1709 468.706L88.4037 467.948L86.3831 456.661C86.1041 455.103 87.1413 453.613 88.6998 453.334C90.2582 453.055 91.7477 454.092 92.0267 455.651L94.0473 466.938L102.513 465.423L99.4819 448.492C99.2029 446.933 100.24 445.444 101.799 445.165Z" fill="white"/>
<defs>
<filter id="filter0_d" x="32.4877" y="75.2453" width="263.784" height="402.604" filterUnits="userSpaceOnUse" color-interpolation-filters="sRGB">
<feFlood flood-opacity="0" result="BackgroundImageFix"/>
<feColorMatrix in="SourceAlpha" type="matrix" values="0 0 0 0 0 0 0 0 0 0 0 0 0 0 0 0 0 0 127 0" result="hardAlpha"/>
<feOffset dy="4.06593"/>
<feGaussianBlur stdDeviation="10.5037"/>
<feColorMatrix type="matrix" values="0 0 0 0 0.0705882 0 0 0 0 0.0627451 0 0 0 0 0.145098 0 0 0 0.16 0"/>
<feBlend mode="normal" in2="BackgroundImageFix" result="effect1_dropShadow"/>
<feBlend mode="normal" in="SourceGraphic" in2="effect1_dropShadow" result="shape"/>
</filter>
</defs>
</svg>
