<svg width="113" height="25" viewBox="0 0 113 25" fill="none" xmlns="http://www.w3.org/2000/svg">
<path d="M15.184 7.764C15.256 7.404 15.292 6.912 15.292 6.288C15.292 5.928 15.268 5.58 15.22 5.244C15.172 4.884 15.088 4.572 14.968 4.308C14.848 4.02 14.668 3.804 14.428 3.66C14.188 3.492 13.876 3.408 13.492 3.408C13.06 3.408 12.664 3.504 12.304 3.696C11.944 3.888 11.62 4.14 11.332 4.452C11.068 4.74 10.852 5.088 10.684 5.496C10.54 5.88 10.468 6.288 10.468 6.72C10.468 7.344 10.624 7.824 10.936 8.16C11.272 8.496 11.704 8.772 12.232 8.988C12.76 9.204 13.36 9.384 14.032 9.528C14.704 9.672 15.4 9.84 16.12 10.032C16.72 10.2 17.32 10.416 17.92 10.68C18.52 10.944 19.048 11.304 19.504 11.76C19.984 12.192 20.368 12.768 20.656 13.488C20.944 14.184 21.088 15.06 21.088 16.116C21.088 17.628 20.788 18.9 20.188 19.932C19.588 20.964 18.76 21.804 17.704 22.452C16.648 23.1 15.388 23.568 13.924 23.856C12.484 24.144 10.912 24.288 9.208 24.288C7.48 24.288 6.064 24.18 4.96 23.964C3.88 23.724 3.028 23.472 2.404 23.208C1.66 22.896 1.108 22.536 0.748 22.128L1.972 17.196H8.308C8.284 17.412 8.26 17.712 8.236 18.096C8.212 18.456 8.2 18.744 8.2 18.96C8.2 19.248 8.236 19.548 8.308 19.86C8.38 20.172 8.488 20.46 8.632 20.724C8.8 20.988 9.028 21.204 9.316 21.372C9.604 21.54 9.964 21.624 10.396 21.624C10.876 21.624 11.296 21.516 11.656 21.3C12.04 21.084 12.352 20.82 12.592 20.508C12.856 20.172 13.048 19.812 13.168 19.428C13.312 19.02 13.384 18.624 13.384 18.24C13.384 17.712 13.252 17.268 12.988 16.908C12.748 16.548 12.412 16.248 11.98 16.008C11.548 15.744 11.044 15.528 10.468 15.36C9.916 15.168 9.34 14.976 8.74 14.784C8.164 14.616 7.552 14.412 6.904 14.172C6.28 13.932 5.704 13.596 5.176 13.164C4.648 12.732 4.204 12.192 3.844 11.544C3.508 10.872 3.34 10.02 3.34 8.988C3.34 7.452 3.724 6.168 4.492 5.136C5.284 4.08 6.268 3.228 7.444 2.58C8.644 1.932 9.952 1.476 11.368 1.212C12.784 0.923999 14.128 0.779999 15.4 0.779999C17.08 0.779999 18.52 0.983999 19.72 1.392C20.944 1.776 21.868 2.232 22.492 2.76L21.16 7.764H15.184ZM35.5569 8.52H42.9009L39.5889 24H33.7569L33.1089 21.696H32.8929C32.2689 22.44 31.4169 23.064 30.3369 23.568C29.2809 24.048 28.2129 24.288 27.1329 24.288C25.6929 24.288 24.5649 23.928 23.7489 23.208C22.9329 22.464 22.5249 21.504 22.5249 20.328C22.5249 19.728 22.6209 18.984 22.8129 18.096C23.0289 17.184 23.2209 16.332 23.3889 15.54L24.9009 8.52H32.2089L30.4089 16.944C30.3609 17.136 30.3129 17.364 30.2649 17.628C30.2169 17.892 30.1689 18.156 30.1209 18.42C30.0729 18.66 30.0249 18.9 29.9769 19.14C29.9529 19.356 29.9409 19.536 29.9409 19.68C29.9409 20.04 30.0129 20.352 30.1569 20.616C30.3249 20.856 30.6129 20.976 31.0209 20.976C31.4529 20.976 31.8609 20.832 32.2449 20.544C32.6289 20.256 32.9289 19.98 33.1449 19.716L35.5569 8.52ZM52.8355 10.824C53.3395 10.344 53.9035 9.9 54.5275 9.492C55.0795 9.156 55.7395 8.844 56.5075 8.556C57.2755 8.268 58.1395 8.124 59.0995 8.124C60.2515 8.124 61.1035 8.388 61.6555 8.916C62.2315 9.444 62.5555 10.092 62.6275 10.86H62.8435C63.3955 10.356 63.9955 9.9 64.6435 9.492C65.1955 9.156 65.8435 8.844 66.5875 8.556C67.3315 8.268 68.1235 8.124 68.9635 8.124C70.2115 8.124 71.2195 8.472 71.9875 9.168C72.7795 9.84 73.1755 10.716 73.1755 11.796C73.1755 12.348 73.0795 13.08 72.8875 13.992C72.6955 14.904 72.4795 15.9 72.2395 16.98L70.7275 24H63.6355L65.5795 14.604C65.6515 14.244 65.7235 13.896 65.7955 13.56C65.8675 13.224 65.9035 12.948 65.9035 12.732C65.9035 12.396 65.8075 12.12 65.6155 11.904C65.4235 11.664 65.1475 11.544 64.7875 11.544C64.3315 11.544 63.8995 11.712 63.4915 12.048C63.1075 12.36 62.8075 12.624 62.5915 12.84L60.2515 24H53.5195L55.4995 14.604C55.5475 14.292 55.6075 13.98 55.6795 13.668C55.7515 13.332 55.7875 13.032 55.7875 12.768C55.7875 12.408 55.6915 12.12 55.4995 11.904C55.3315 11.664 55.0675 11.544 54.7075 11.544C54.2755 11.544 53.8555 11.7 53.4475 12.012C53.0635 12.324 52.7635 12.588 52.5475 12.804L50.1715 24H42.8275L46.1035 8.52H51.9715L52.6195 10.824H52.8355ZM82.0433 16.764C81.9473 17.292 81.8753 17.796 81.8273 18.276C81.8033 18.756 81.7913 19.188 81.7913 19.572C81.7913 19.788 81.8033 20.028 81.8273 20.292C81.8513 20.556 81.8993 20.808 81.9713 21.048C82.0673 21.264 82.1873 21.456 82.3313 21.624C82.4993 21.768 82.7273 21.84 83.0153 21.84C83.2313 21.84 83.4713 21.768 83.7353 21.624C84.0233 21.48 84.2993 21.276 84.5633 21.012C84.8513 20.748 85.1153 20.424 85.3553 20.04C85.6193 19.656 85.8233 19.224 85.9673 18.744H91.8713L90.9353 22.596C90.4553 22.908 89.9033 23.172 89.2793 23.388C88.6553 23.604 87.9953 23.784 87.2993 23.928C86.6033 24.048 85.8953 24.132 85.1753 24.18C84.4553 24.252 83.7713 24.288 83.1233 24.288C81.9233 24.288 80.8073 24.18 79.7753 23.964C78.7433 23.748 77.8433 23.376 77.0753 22.848C76.3073 22.32 75.6953 21.624 75.2393 20.76C74.8073 19.872 74.5913 18.78 74.5913 17.484C74.5913 16.308 74.7713 15.156 75.1313 14.028C75.5153 12.9 76.1393 11.904 77.0033 11.04C77.8913 10.152 79.0673 9.444 80.5313 8.916C82.0193 8.388 83.8673 8.124 86.0753 8.124C88.4753 8.124 90.2753 8.496 91.4753 9.24C92.6993 9.984 93.3113 11.148 93.3113 12.732C93.3113 13.38 93.2153 14.088 93.0233 14.856C92.8313 15.6 92.5433 16.236 92.1593 16.764H82.0433ZM86.8313 12.48C86.8313 11.736 86.7113 11.232 86.4713 10.968C86.2313 10.704 85.9433 10.572 85.6073 10.572C85.2233 10.572 84.8633 10.704 84.5273 10.968C84.2153 11.208 83.9273 11.544 83.6633 11.976C83.3993 12.384 83.1593 12.864 82.9433 13.416C82.7273 13.944 82.5473 14.508 82.4033 15.108H86.5073C86.5553 14.82 86.6033 14.52 86.6513 14.208C86.6993 13.944 86.7353 13.656 86.7593 13.344C86.8073 13.032 86.8313 12.744 86.8313 12.48ZM104.616 12.588L108.396 8.52H112.536L106.02 15.216L110.664 24H103.032L100.512 19.248L95.7599 24H91.6199L99.1439 16.656L94.8599 8.52H102.456L104.616 12.588Z" fill="url(#paint0_linear)"/>
<defs>
<linearGradient id="paint0_linear" x1="113" y1="-11" x2="1" y2="-11" gradientUnits="userSpaceOnUse">
<stop stop-color="#FFCCB0"/>
<stop offset="1" stop-color="#FF83D5"/>
</linearGradient>
</defs>
</svg>
